<svg width="122" height="122" viewBox="0 0 122 122" fill="none" xmlns="http://www.w3.org/2000/svg">
<path d="M30.3302 68.2428C34.5179 68.2428 37.9128 64.848 37.9128 60.6603C37.9128 56.4726 34.5179 53.0778 30.3302 53.0778C26.1425 53.0778 22.7477 56.4726 22.7477 60.6603C22.7477 64.848 26.1425 68.2428 30.3302 68.2428Z" fill="white"/>
<path d="M60.6603 68.2428C64.848 68.2428 68.2428 64.848 68.2428 60.6603C68.2428 56.4726 64.848 53.0778 60.6603 53.0778C56.4726 53.0778 53.0778 56.4726 53.0778 60.6603C53.0778 64.848 56.4726 68.2428 60.6603 68.2428Z" fill="white"/>
<path d="M90.9905 68.2428C95.1782 68.2428 98.573 64.848 98.573 60.6603C98.573 56.4726 95.1782 53.0778 90.9905 53.0778C86.8028 53.0778 83.408 56.4726 83.408 60.6603C83.408 64.848 86.8028 68.2428 90.9905 68.2428Z" fill="white"/>
</svg>
